<svg height="383pt" viewBox="0 0 383.98933 383" width="383pt" xmlns="http://www.w3.org/2000/svg"><path d="m373.339844 384.480469c-2.730469 0-5.460938-1.046875-7.554688-3.117188l-362.664062-362.664062c-4.160156-4.160157-4.160156-10.925781 0-15.085938 4.160156-4.160156 10.921875-4.160156 15.082031 0l362.667969 362.667969c4.160156 4.160156 4.160156 10.921875 0 15.082031-2.070313 2.070313-4.800782 3.117188-7.53125 3.117188zm0 0"/><path d="m10.671875 384.480469c-2.730469 0-5.460937-1.046875-7.550781-3.117188-4.160156-4.160156-4.160156-10.921875 0-15.082031l362.664062-362.667969c4.160156-4.160156 10.925782-4.160156 15.085938 0 4.160156 4.160157 4.160156 10.925781 0 15.085938l-362.667969 362.664062c-2.070313 2.070313-4.800781 3.117188-7.53125 3.117188zm0 0"/></svg>