<svg width="125" height="25" viewBox="0 0 125 25" fill="none" xmlns="http://www.w3.org/2000/svg">
<path fill-rule="evenodd" clip-rule="evenodd" d="M12.2141 3.40176C13.4959 3.40176 14.5189 4.42473 14.5189 5.71886C14.5189 7.01298 13.5082 8.03596 12.2141 8.03596C10.9323 8.03596 9.9093 7.01298 9.9093 5.71886C9.9093 4.42473 10.9323 3.40176 12.2141 3.40176Z" fill="#E5E5E5"/>
<path fill-rule="evenodd" clip-rule="evenodd" d="M9.4656 11.4869H11.4376V9.49025C9.7121 9.14515 8.381 7.57988 8.381 5.7188C8.381 3.88238 9.7121 2.3171 11.4499 1.99665V0H8.80005C8.80005 1.68852 7.41965 3.0566 5.70648 3.0566C4.03028 3.0566 2.64988 1.68852 2.64988 0H0V2.63755C1.6762 2.63755 3.06893 4.03028 3.06893 5.7188C3.06893 7.43198 1.68853 8.8247 0 8.8247V11.4869H1.972C2.3171 9.74907 3.87005 8.40565 5.70648 8.40565C7.56755 8.40565 9.1205 9.73675 9.4656 11.4869Z" fill="#E5E5E5"/>
<path fill-rule="evenodd" clip-rule="evenodd" d="M20.9649 12.2265C20.9649 13.5206 19.9542 14.519 18.6601 14.519C17.366 14.519 16.3553 13.5206 16.3553 12.2265C16.3553 10.9324 17.366 9.90941 18.6601 9.90941C19.9542 9.90941 20.9649 10.9324 20.9649 12.2265Z" fill="#E5E5E5"/>
<path fill-rule="evenodd" clip-rule="evenodd" d="M12.9537 9.49025V11.4746H14.9257C15.2708 9.73675 16.8237 8.39333 18.6601 8.39333C20.5089 8.39333 22.0742 9.73675 22.4193 11.4746H24.3666V8.8247C22.7151 8.8247 21.3223 7.43198 21.3223 5.7188C21.3223 4.03028 22.7027 2.63755 24.3666 2.63755V0H21.7414C21.7414 1.68853 20.361 3.0566 18.6478 3.0566C16.9716 3.0566 15.5789 1.68853 15.5789 0H12.929V1.98433C14.6545 2.30478 15.9979 3.87005 15.9979 5.70648C16.0226 7.57988 14.6792 9.14515 12.9537 9.49025Z" fill="#E5E5E5"/>
<path fill-rule="evenodd" clip-rule="evenodd" d="M12.9537 14.9381V12.9784H14.9257C15.2708 14.6669 16.7991 16.0103 18.6355 16.035C18.6601 16.035 18.6601 16.035 18.6601 16.035C18.6848 16.035 18.6848 16.035 18.7094 16.035C20.5335 16.0103 22.0742 14.6669 22.4193 12.9784H24.3666V15.6159C22.7151 15.6159 21.3223 17.0087 21.3223 18.6972C21.3223 20.4104 22.7027 21.8031 24.3666 21.8031V24.4653H21.7414C21.7414 22.7768 20.361 21.384 18.6478 21.384C16.9716 21.384 15.5789 22.7768 15.5789 24.4653H12.929V22.481C14.6299 22.1359 15.9733 20.5952 15.9979 18.7588C15.9979 18.7342 15.9979 18.7342 15.9979 18.7095V18.6849C15.9979 16.8238 14.6545 15.2832 12.9537 14.9381Z" fill="#E5E5E5"/>
<path fill-rule="evenodd" clip-rule="evenodd" d="M11.4499 14.938C9.73675 15.2831 8.40565 16.8237 8.381 18.6602C8.381 18.6848 8.381 18.6848 8.381 18.6848C8.381 18.7095 8.381 18.7095 8.381 18.7341C8.40565 20.5705 9.73675 22.1112 11.4499 22.4563V24.4406H8.80005C8.80005 22.7521 7.41965 21.3593 5.70648 21.3593C4.03028 21.3593 2.63755 22.7521 2.63755 24.4406H0V21.7784C1.6762 21.7784 3.06893 20.3857 3.06893 18.6725C3.06893 16.984 1.68853 15.5912 0 15.5912V12.9537H1.972C2.3171 14.6422 3.8454 15.9856 5.68183 16.0103C5.70648 16.0103 5.70648 16.0103 5.70648 16.0103C5.73113 16.0103 5.73113 16.0103 5.75578 16.0103C7.57988 15.9856 9.1205 14.6422 9.4656 12.9537H11.4376V14.938H11.4499Z" fill="#E5E5E5"/>
<path fill-rule="evenodd" clip-rule="evenodd" d="M3.4386 12.2265C3.4386 10.9324 4.44925 9.90941 5.74337 9.90941C7.02517 9.90941 8.04815 10.9324 8.04815 12.2265C8.04815 13.5206 7.0375 14.519 5.74337 14.519C4.44925 14.519 3.4386 13.5206 3.4386 12.2265Z" fill="#E5E5E5"/>
<path fill-rule="evenodd" clip-rule="evenodd" d="M12.2141 21.0266C10.9323 21.0266 9.9093 20.0036 9.9093 18.7095C9.9093 17.4153 10.92 16.3924 12.2141 16.3924C13.4959 16.3924 14.5189 17.4153 14.5189 18.7095C14.5189 20.0036 13.4959 21.0266 12.2141 21.0266Z" fill="#E5E5E5"/>
<path fill-rule="evenodd" clip-rule="evenodd" d="M113.723 10.4883C112.663 8.99693 111.073 8.60253 109.175 9.36668C107.375 10.1062 106.476 11.4989 106.648 13.3723L113.723 10.4883ZM117.359 10.7841C117.556 11.2524 117.63 11.5236 117.728 12.0042L107.844 16.0099C108.83 17.4026 110.568 17.8216 112.367 17.1068C113.624 16.5891 114.24 15.9359 114.697 14.6911L118.012 13.3723C118.234 16.3057 116.188 18.8446 113.587 19.8799C109.705 21.4452 105.502 19.7567 103.998 16.0222C102.519 12.2754 104.27 8.0972 108.029 6.58123C111.8 5.06525 115.781 6.8154 117.359 10.7841Z" fill="#E5E5E5"/>
<path fill-rule="evenodd" clip-rule="evenodd" d="M104.676 20.2251V17.2671H98.144L104.208 9.41605V6.45805H94.2123V9.41605H100.276L94.2123 17.2671V20.2251H104.676Z" fill="#E5E5E5"/>
<path fill-rule="evenodd" clip-rule="evenodd" d="M93.2017 20.2501H89.8862V6.45844H93.2017V20.2501ZM91.5748 5.23827C90.6381 5.23827 89.9232 4.49877 89.9232 3.57439C89.9232 2.65002 90.6381 1.95982 91.5748 1.95982C92.4868 1.95982 93.2263 2.65002 93.2263 3.57439C93.2263 4.49877 92.4868 5.23827 91.5748 5.23827Z" fill="#E5E5E5"/>
<path fill-rule="evenodd" clip-rule="evenodd" d="M74.0733 17.551C71.6453 17.551 69.9937 15.9118 69.9937 13.4961C69.9937 10.9818 71.6453 9.19469 74.024 9.19469C76.3781 9.19469 78.0543 10.9572 78.0543 13.4715C78.0543 15.7269 76.5629 17.551 74.0733 17.551ZM87.8157 17.1936C87.3966 17.1936 87.0515 16.8485 87.0515 16.4171V9.49049H89.0235V6.45854H87.0515V1.88596H83.7361V6.45854H78.1529V8.31961C77.019 6.80364 75.6509 6.13809 73.6789 6.13809C69.5993 6.13809 66.6783 9.21934 66.6783 13.4222C66.6783 17.5757 69.5747 20.583 73.6049 20.583C75.5276 20.583 76.8464 19.9667 78.1529 18.4754V20.2625H81.1725V9.49049H83.7484V17.1936C83.7484 18.8821 85.1288 20.2502 86.8173 20.2502H90.0835V17.1936H87.8157Z" fill="#E5E5E5"/>
<path fill-rule="evenodd" clip-rule="evenodd" d="M62.4261 10.5381C61.3661 9.04676 59.7762 8.65236 57.8782 9.41651C56.0787 10.156 55.179 11.5487 55.3515 13.4221L62.4261 10.5381ZM66.062 10.8339C66.2592 11.2776 66.3331 11.5734 66.4317 12.0541L56.5471 16.0597C57.5331 17.4524 59.2709 17.8715 61.0703 17.1566C62.3275 16.639 62.9437 15.9857 63.3998 14.7409L66.7152 13.4221C66.937 16.3555 64.8911 18.8944 62.2905 19.9297C58.4081 21.495 54.2053 19.8065 52.7017 16.072C51.2227 12.3252 52.9728 8.14703 56.7319 6.63106C60.4911 5.11508 64.472 6.86523 66.062 10.8339Z" fill="#E5E5E5"/>
<path fill-rule="evenodd" clip-rule="evenodd" d="M53.4289 9.2684V6.08855H52.4675C51.0378 6.08855 50.3353 6.48295 49.4726 7.75243V6.409H46.4283V20.176H49.7437V12.5222C49.7437 10.39 50.6311 9.3177 53.4289 9.2684Z" fill="#E5E5E5"/>
<path fill-rule="evenodd" clip-rule="evenodd" d="M125 9.2684V6.08855H124.039C122.609 6.08855 121.906 6.48295 121.044 7.75243V6.409H117.999V20.176H121.315V12.5222C121.315 10.39 122.202 9.3177 125 9.2684Z" fill="#E5E5E5"/>
<path fill-rule="evenodd" clip-rule="evenodd" d="M46.4775 15.702H42.743C41.9296 16.9961 40.9929 17.5384 39.6248 17.5384C37.3447 17.5384 35.6192 15.7267 35.6192 13.3356C35.6192 10.9199 37.2707 9.15743 39.5509 9.15743C41.0299 9.15743 42.0775 9.79833 42.743 11.0678H46.4775C45.4176 7.88796 42.6691 6.12548 39.5509 6.12548C35.4713 6.12548 32.3038 9.28068 32.3038 13.3603C32.3038 17.3659 35.5699 20.5704 39.6495 20.5704C42.8416 20.5827 45.3436 18.8202 46.4775 15.702Z" fill="#E5E5E5"/>
</svg>
