<svg width="49" height="49" viewBox="0 0 49 49" fill="none" xmlns="http://www.w3.org/2000/svg">
<path d="M26.2228 10.2399H36.8637V1.28491H26.2094L29.7043 5.77137L26.2228 10.2399Z" fill="#0665E6"/>
<path d="M38.3722 26.6769V36.8274H47.2991V26.3411L42.6169 30.0037L38.3722 26.6769Z" fill="#E05627"/>
<path d="M22.1478 38.1306H11.5069V47.0856H22.1612L18.6707 42.5992L22.1478 38.1306Z" fill="#0665E6"/>
<path d="M34.1276 38.1306V38.1216H26.5531V36.8276H24.9463L23.9331 38.1306L20.4561 42.5991L23.9465 47.0856L24.9463 48.3706H26.5531V47.0766H38.3813L47.2993 38.1306H34.1276Z" fill="#E05627"/>
<path d="M48.3703 22.0919H47.0804V10.231L38.1624 1.28491V14.4936H38.1535V22.0919H36.8635V23.7083L38.3722 24.8858L42.6169 28.2126L47.2991 24.55L48.3703 23.7083V22.0919Z" fill="#0665E6"/>
<path d="M27.9189 5.7715L24.424 1.28504L23.4242 0H21.8173V1.294H9.99361L1.07562 10.2401H14.2428V10.249H21.8173V11.543H23.4242L24.4374 10.2401L27.9189 5.7715Z" fill="#E05627"/>
<path d="M10.0025 21.6934V11.5428H1.07562V22.0336L5.75333 18.3666L10.0025 21.6934Z" fill="#E05627"/>
<path d="M11.5068 24.6666L10.0026 23.4845L5.7534 20.1577L1.07569 23.8248L0 24.6666V26.2785H1.28994V38.1394L10.2079 47.0854V33.8768H10.2169V26.2785H11.5068V24.6666Z" fill="#0665E6"/>
</svg>
