<svg width="195" height="24" viewBox="0 0 195 24" fill="none" xmlns="http://www.w3.org/2000/svg">
<path d="M10.3778 20.2047C8.42451 20.2047 6.65381 19.7767 5.06566 18.9209C3.49576 18.0465 2.25445 16.8465 1.34171 15.3209C0.447238 13.7767 0 12.0372 0 10.1023C0 8.16744 0.447238 6.43721 1.34171 4.91163C2.25445 3.36744 3.49576 2.16744 5.06566 1.31163C6.65381 0.43721 8.43364 0 10.4051 0C12.0663 0 13.5632 0.297677 14.8958 0.893026C16.2466 1.48838 17.3784 2.34419 18.2911 3.46047L15.4434 6.13953C14.1473 4.61395 12.5409 3.85117 10.6242 3.85117C9.43764 3.85117 8.37887 4.12093 7.44789 4.66046C6.5169 5.18139 5.78672 5.91628 5.25733 6.86512C4.7462 7.81396 4.49064 8.89302 4.49064 10.1023C4.49064 11.3116 4.7462 12.3907 5.25733 13.3395C5.78672 14.2884 6.5169 15.0326 7.44789 15.5721C8.37887 16.093 9.43764 16.3535 10.6242 16.3535C12.5409 16.3535 14.1473 15.5814 15.4434 14.0372L18.2911 16.7163C17.3784 17.8512 16.2466 18.7163 14.8958 19.3116C13.5449 19.907 12.0389 20.2047 10.3778 20.2047Z" fill="white"/>
<path d="M38.1043 0.334884V19.8698H33.6958V4.0186H25.0431V19.8698H20.6346V0.334884H38.1043Z" fill="white"/>
<path d="M57.1491 16.2419V19.8698H42.3081V0.334884H56.7931V3.96279H46.7166V8.20465H55.6157V11.7209H46.7166V16.2419H57.1491Z" fill="white"/>
<path d="M80.2828 16.186V24H76.2029V19.8698H60.1844V0.334884H64.5929V16.186H73.1361V0.334884H77.5446V16.186H80.2828Z" fill="white"/>
<path d="M96.4804 4.0186H90.3469V19.8698H85.9658V4.0186H79.8596V0.334884H96.4804V4.0186Z" fill="white"/>
<path d="M113.559 16.2419V19.8698H98.7181V0.334884H113.203V3.96279H103.127V8.20465H112.026V11.7209H103.127V16.2419H113.559Z" fill="white"/>
<path d="M134.174 0.334884V19.8698H129.738V11.8605H121.03V19.8698H116.594V0.334884H121.03V8.03721H129.738V0.334884H134.174Z" fill="white"/>
<path d="M158.064 16.186V23.9163H153.957V19.8698H140.43V23.9163H136.323L136.35 16.186H137.117C138.267 16.1488 139.08 15.293 139.554 13.6186C140.029 11.9442 140.321 9.55349 140.43 6.44651L140.649 0.334884H155.381V16.186H158.064ZM144.346 6.86512C144.255 9.1907 144.063 11.1442 143.771 12.7256C143.479 14.2884 143.032 15.4419 142.429 16.186H151V4.0186H144.428L144.346 6.86512Z" fill="white"/>
<path d="M175.344 16.2419V19.8698H160.503V0.334884H174.988V3.96279H164.911V8.20465H173.81V11.7209H164.911V16.2419H175.344Z" fill="white"/>
<path d="M186.676 0.334884C188.374 0.334884 189.843 0.623254 191.084 1.2C192.344 1.77674 193.311 2.59535 193.987 3.65581C194.662 4.71628 195 5.97209 195 7.42326C195 8.85581 194.662 10.1116 193.987 11.1907C193.311 12.2512 192.344 13.0698 191.084 13.6465C189.843 14.2047 188.374 14.4837 186.676 14.4837H182.815V19.8698H178.379V0.334884H186.676ZM186.429 10.8C187.762 10.8 188.775 10.5116 189.469 9.93488C190.163 9.33953 190.509 8.50233 190.509 7.42326C190.509 6.32558 190.163 5.48837 189.469 4.91163C188.775 4.31628 187.762 4.0186 186.429 4.0186H182.815V10.8H186.429Z" fill="white"/>
</svg>
